<?xml version="1.0" standalone="no"?>
<!DOCTYPE svg PUBLIC "-//W3C//DTD SVG 20010904//EN"
 "http://www.w3.org/TR/2001/REC-SVG-20010904/DTD/svg10.dtd">
<svg version="1.0" xmlns="http://www.w3.org/2000/svg"
 width="512.000000pt" height="512.000000pt" viewBox="0 0 512.000000 512.000000"
 preserveAspectRatio="xMidYMid meet">
<metadata>
Created by potrace 1.11, written by Peter Selinger 2001-2013
</metadata>
<g transform="translate(0.000000,512.000000) scale(0.100000,-0.100000)"
fill="#000000" stroke="none">
<path d="M2320 5100 c-160 -24 -355 -80 -445 -128 -16 -9 -32 -17 -35 -17 -11
-2 -99 -51 -160 -88 -272 -170 -493 -419 -628 -707 -39 -84 -95 -236 -108
-295 -31 -141 -45 -257 -47 -380 -2 -184 12 -307 51 -450 12 -46 11 -50 -43
-96 -56 -49 -201 -193 -256 -254 -159 -179 -316 -445 -382 -650 -58 -179 -72
-265 -72 -450 0 -148 9 -220 46 -355 12 -41 25 -79 29 -84 12 -13 105 20 172
61 109 66 249 214 314 333 27 50 33 54 38 28 13 -73 101 -293 158 -396 45 -82
132 -213 173 -262 19 -23 35 -45 35 -49 0 -4 -24 -15 -52 -26 -84 -29 -179
-81 -243 -132 -123 -100 -167 -238 -112 -354 51 -106 154 -190 312 -254 51
-21 151 -52 190 -59 17 -3 59 -11 95 -18 122 -21 426 -15 518 11 18 6 35 10
37 10 86 8 259 81 353 148 l63 45 77 -7 c102 -10 207 -10 315 -1 l88 7 47 -34
c88 -64 236 -133 325 -151 12 -3 33 -7 47 -11 104 -22 177 -29 325 -29 186 1
295 16 430 60 327 106 479 300 391 498 -47 105 -182 210 -343 268 -58 20 -77
38 -54 53 13 7 87 105 133 175 78 119 161 299 211 458 l23 73 24 -43 c67 -121
198 -265 302 -332 57 -36 147 -76 173 -76 18 0 50 99 74 230 15 81 19 137 16
245 -5 181 -23 283 -77 440 -44 127 -181 385 -248 468 -5 6 -42 53 -81 102
-70 87 -231 254 -316 325 l-41 35 19 80 c10 44 21 98 24 120 4 22 9 54 12 70
15 85 10 302 -12 465 -15 120 -85 340 -146 462 -249 497 -704 831 -1249 918
-124 20 -359 20 -490 0z"/>
</g>
</svg>
